<svg width="46" height="46" viewBox="0 0 46 46" fill="none" xmlns="http://www.w3.org/2000/svg">
<g clip-path="url(#clip0_80_1018)">
<mask id="mask0_80_1018" style="mask-type:luminance" maskUnits="userSpaceOnUse" x="0" y="0" width="46" height="46">
<path d="M22.9999 45.5C35.4263 45.5 45.4999 35.4264 45.4999 23C45.4999 10.5736 35.4263 0.5 22.9999 0.5C10.5735 0.5 0.499878 10.5736 0.499878 23C0.499878 35.4264 10.5735 45.5 22.9999 45.5Z" fill="white"/>
</mask>
<g mask="url(#mask0_80_1018)">
<path d="M10.1678 91.5547C36.8652 91.5547 58.5077 69.9122 58.5077 43.2148C58.5077 16.5175 36.8652 -5.125 10.1678 -5.125C-16.5295 -5.125 -38.172 16.5175 -38.172 43.2148C-38.172 69.9122 -16.5295 91.5547 10.1678 91.5547Z" fill="url(#paint0_radial_80_1018)"/>
</g>
<path d="M29.328 18.4297C30.2988 18.4297 31.0858 17.6427 31.0858 16.6719C31.0858 15.7011 30.2988 14.9141 29.328 14.9141C28.3572 14.9141 27.5702 15.7011 27.5702 16.6719C27.5702 17.6427 28.3572 18.4297 29.328 18.4297Z" fill="white"/>
<path d="M22.9999 17.375C21.8874 17.375 20.7998 17.7049 19.8748 18.323C18.9498 18.9411 18.2288 19.8196 17.8031 20.8474C17.3773 21.8752 17.2659 23.0062 17.483 24.0974C17.7 25.1885 18.2357 26.1908 19.0224 26.9775C19.8091 27.7641 20.8114 28.2999 21.9025 28.5169C22.9936 28.734 24.1246 28.6226 25.1525 28.1968C26.1803 27.7711 27.0588 27.0501 27.6769 26.1251C28.295 25.2001 28.6249 24.1125 28.6249 23C28.6249 21.5082 28.0322 20.0774 26.9774 19.0225C25.9225 17.9676 24.4917 17.375 22.9999 17.375ZM22.9999 25.8125C22.4436 25.8125 21.8999 25.6475 21.4373 25.3385C20.9748 25.0295 20.6143 24.5902 20.4015 24.0763C20.1886 23.5624 20.1329 22.9969 20.2414 22.4513C20.3499 21.9057 20.6178 21.4046 21.0111 21.0113C21.4045 20.6179 21.9056 20.3501 22.4512 20.2415C22.9968 20.133 23.5623 20.1887 24.0762 20.4016C24.5901 20.6145 25.0293 20.9749 25.3384 21.4375C25.6474 21.9 25.8124 22.4437 25.8124 23C25.8124 23.7459 25.5161 24.4613 24.9886 24.9887C24.4612 25.5162 23.7458 25.8125 22.9999 25.8125Z" fill="white"/>
<path d="M30.0311 11.75H15.9686C13.6387 11.75 11.7499 13.6388 11.7499 15.9688V30.0313C11.7499 32.3612 13.6387 34.25 15.9686 34.25H30.0311C32.3611 34.25 34.2499 32.3612 34.2499 30.0313V15.9688C34.2499 13.6388 32.3611 11.75 30.0311 11.75Z" stroke="white" stroke-width="3" stroke-miterlimit="10"/>
</g>
<rect x="0.999878" y="1" width="44" height="44" rx="22" stroke="white"/>
<defs>
<radialGradient id="paint0_radial_80_1018" cx="0" cy="0" r="1" gradientUnits="userSpaceOnUse" gradientTransform="translate(10.1678 43.2148) scale(48.3398)">
<stop stop-color="#FFD676"/>
<stop offset="0.25" stop-color="#F2A454"/>
<stop offset="0.38" stop-color="#F05C3C"/>
<stop offset="0.7" stop-color="#C22F86"/>
<stop offset="0.96" stop-color="#6666AD"/>
<stop offset="0.99" stop-color="#5C6CB2"/>
</radialGradient>
<clipPath id="clip0_80_1018">
<rect x="0.499878" y="0.5" width="45" height="45" rx="22.5" fill="white"/>
</clipPath>
</defs>
</svg>
