<svg width="46" height="46" viewBox="0 0 46 46" fill="none" xmlns="http://www.w3.org/2000/svg">
<g clip-path="url(#clip0_80_1016)">
<path d="M45.4999 23C45.4999 10.5736 35.4263 0.5 22.9999 0.5C10.5735 0.5 0.499878 10.5736 0.499878 23C0.499878 35.4264 10.5735 45.5 22.9999 45.5C35.4263 45.5 45.4999 35.4264 45.4999 23Z" fill="#0DC143"/>
<path d="M33.0786 12.8858C30.6665 10.4026 27.332 9.05469 23.9266 9.05469C16.6901 9.05469 10.8725 14.9432 10.9435 22.1087C10.9435 24.379 11.582 26.5783 12.6462 28.5648L10.8016 35.3047L17.6834 33.531C19.5989 34.5952 21.7273 35.0919 23.8556 35.0919C31.0212 35.0919 36.8388 29.2033 36.8388 22.0378C36.8388 18.5614 35.4908 15.298 33.0786 12.8858ZM23.9266 32.8925C22.0111 32.8925 20.0955 32.3959 18.4638 31.4026L18.038 31.1898L13.9233 32.254L14.9874 28.2101L14.7036 27.7844C11.582 22.7472 13.0718 16.0783 18.18 12.9567C23.288 9.83509 29.8861 11.3249 33.0077 16.4331C36.1293 21.5412 34.6395 28.1392 29.5313 31.2608C27.8996 32.3249 25.913 32.8925 23.9266 32.8925ZM30.1699 25.0175L29.3895 24.6627C29.3895 24.6627 28.2543 24.1662 27.5449 23.8114C27.4739 23.8114 27.4029 23.7405 27.332 23.7405C27.1191 23.7405 26.9773 23.8114 26.8354 23.8824C26.8354 23.8824 26.7645 23.9533 25.7712 25.0885C25.7002 25.2304 25.5584 25.3013 25.4165 25.3013H25.3455C25.2746 25.3013 25.1327 25.2304 25.0617 25.1594L24.707 25.0175C23.9266 24.6628 23.2172 24.2371 22.6496 23.6696C22.5077 23.5276 22.2949 23.3858 22.1529 23.2438C21.6563 22.7472 21.1597 22.1797 20.805 21.5412L20.734 21.3993C20.663 21.3283 20.663 21.2574 20.5922 21.1155C20.5922 20.9736 20.5922 20.8317 20.663 20.7608C20.663 20.7608 20.9468 20.406 21.1597 20.1932C21.3016 20.0513 21.3725 19.8385 21.5145 19.6966C21.6563 19.4837 21.7273 19.1999 21.6563 18.9871C21.5854 18.6324 20.734 16.7169 20.5212 16.2912C20.3793 16.0783 20.2374 16.0074 20.0246 15.9364H19.8117C19.6699 15.9364 19.457 15.9364 19.2441 15.9364C19.1023 15.9364 18.9604 16.0074 18.8185 16.0074L18.7475 16.0783C18.6056 16.1493 18.4638 16.2912 18.3218 16.3621C18.18 16.504 18.109 16.6459 17.9672 16.7878C17.4705 17.4263 17.1867 18.2068 17.1867 18.9871C17.1867 19.5547 17.3286 20.1223 17.5415 20.6188L17.6124 20.8318C18.251 22.1797 19.1023 23.3858 20.2374 24.4499L20.5212 24.7337C20.734 24.9466 20.9468 25.0885 21.0888 25.3013C22.5786 26.5783 24.2813 27.5007 26.1968 27.9972C26.4097 28.0682 26.6935 28.0682 26.9063 28.1392C27.1191 28.1392 27.4029 28.1392 27.6158 28.1392C27.9705 28.1392 28.3962 27.9972 28.68 27.8554C28.8928 27.7135 29.0347 27.7135 29.1766 27.5716L29.3185 27.4297C29.4604 27.2878 29.6023 27.2169 29.7441 27.0749C29.8861 26.9331 30.0279 26.7912 30.0989 26.6493C30.2408 26.3655 30.3117 26.0108 30.3827 25.656C30.3827 25.5142 30.3827 25.3013 30.3827 25.1594C30.3827 25.1594 30.3117 25.0885 30.1699 25.0175Z" fill="white"/>
</g>
<rect x="0.999878" y="1" width="44" height="44" rx="22" stroke="white"/>
<defs>
<clipPath id="clip0_80_1016">
<rect x="0.499878" y="0.5" width="45" height="45" rx="22.5" fill="white"/>
</clipPath>
</defs>
</svg>
